<svg viewBox="0 0 100 100" fill="none" xmlns="http://www.w3.org/2000/svg">
  <defs>
    <linearGradient id="medGrad" x1="0%" y1="0%" x2="100%" y2="100%">
      <stop offset="0%" stopColor="#2563EB" />
      <stop offset="100%" stopColor="#4F46E5" />
    </linearGradient>
    <linearGradient id="techGrad" x1="0%" y1="100%" x2="100%" y2="0%">
      <stop offset="0%" stopColor="#06B6D4" />
      <stop offset="100%" stopColor="#3B82F6" />
    </linearGradient>
    <filter id="glow" x="-20%" y="-20%" width="140%" height="140%">
      <feGaussianBlur stdDeviation="2" result="blur" />
      <feComposite in="SourceGraphic" in2="blur" operator="over" />
    </filter>
  </defs>
  
  <circle cx="50" cy="50" r="45" stroke="url(#techGrad)" stroke-width="1" stroke-dasharray="4 6" opacity="0.5" />
  <circle cx="50" cy="50" r="38" stroke="url(#medGrad)" stroke-width="0.5" opacity="0.3" />

  <path d="M30 25 C 30 10, 70 10, 70 25 V 45 C 70 65, 45 65, 45 80" stroke="url(#medGrad)" stroke-width="6" stroke-linecap="round" stroke-linejoin="round" />
  
  <rect x="26" y="22" width="8" height="6" rx="3" fill="url(#techGrad)" />
  <rect x="66" y="22" width="8" height="6" rx="3" fill="url(#techGrad)" />
  
  <circle cx="45" cy="80" r="12" fill="white" stroke="url(#medGrad)" stroke-width="4" />
  <circle cx="45" cy="80" r="5" fill="url(#techGrad)" filter="url(#glow)" />
  
  <path d="M70 45 L 82 55 L 75 75" stroke="url(#techGrad)" stroke-width="2" stroke-dasharray="3 3" />
  <circle cx="82" cy="55" r="4" fill="url(#techGrad)" filter="url(#glow)" />
  <circle cx="75" cy="75" r="3" fill="url(#techGrad)" />
  
  <path d="M45 60 L 25 55 L 20 70" stroke="url(#techGrad)" stroke-width="2" stroke-dasharray="3 3" />
  <circle cx="25" cy="55" r="3" fill="url(#techGrad)" />
  <circle cx="20" cy="70" r="4" fill="url(#techGrad)" filter="url(#glow)" />
  
  <rect x="48" y="35" width="4" height="14" rx="1" fill="url(#techGrad)" />
  <rect x="43" y="40" width="14" height="4" rx="1" fill="url(#techGrad)" />
</svg>
